<svg width="100" height="100" viewBox="0 0 100 100" fill="none" xmlns="http://www.w3.org/2000/svg">
<g clip-path="url(#clip0)">
<path d="M85.3554 14.6446C75.9117 5.20096 63.3553 0 50 0C36.6447 0 24.0883 5.20096 14.6446 14.6446C5.20096 24.0883 0 36.6447 0 50C0 63.3553 5.20096 75.9117 14.6446 85.3554C24.0883 94.799 36.6447 100 50 100C59.1431 100 68.0893 97.5082 75.8713 92.794C77.7168 91.6763 78.3066 89.2746 77.1889 87.4298C76.0712 85.5843 73.6687 84.9945 71.8239 86.1122C65.2626 90.0864 57.7156 92.1875 50 92.1875C28.0548 92.1875 9.97238 75.3441 7.99484 53.9062H32.8598C34.6413 61.7249 41.6496 67.5781 50 67.5781C58.3504 67.5781 65.3587 61.7249 67.1402 53.9062H92.0044C91.3544 60.8391 88.9778 67.5163 85.0342 73.4154C83.8348 75.2083 84.317 77.6344 86.1107 78.8338C87.9036 80.0323 90.3297 79.5502 91.5291 77.7573C97.0703 69.4679 100 59.8694 100 50C100 36.6447 94.799 24.0883 85.3554 14.6446V14.6446ZM50 7.8125C71.9452 7.8125 90.0276 24.6559 92.0052 46.0938H67.1402C65.3587 38.2751 58.3504 32.4219 50 32.4219C41.6496 32.4219 34.6413 38.2751 32.8598 46.0938H7.99484C9.97238 24.6559 28.0548 7.8125 50 7.8125V7.8125ZM50 59.7656C44.6152 59.7656 40.2344 55.3848 40.2344 50C40.2344 44.6152 44.6152 40.2344 50 40.2344C55.3848 40.2344 59.7656 44.6152 59.7656 50C59.7656 55.3848 55.3848 59.7656 50 59.7656V59.7656Z" fill="black" fill-opacity="0.1"/>
</g>
<defs>
<clipPath id="clip0">
<rect width="100" height="100" fill="white"/>
</clipPath>
</defs>
</svg>
